# xmcd CD database file
#
# Track frame offsets:
#	150
#	18175
#	33430
#	55550
#	67577
#	84062
#	102532
#	119795
#	139612
#	155000
#	170720
#	192522
#
# Disc length: 2763 seconds
#
# Revision: 0
# Processed by: cddbd v1.5.2PL0 Copyright (c) Steve Scherf et al.
# Submitted via: ACXtractor (MTCDDB.DLL V2003.12.21)
#
DISCID=990ac90c
DTITLE=Shane Hogan - The Travellin' Breed
DYEAR=1994
DGENRE=Country
TTITLE0=Son of a Drover
TTITLE1=The Travellin' Breed
TTITLE2=Ned Kelly
TTITLE3=Friday Arvo
TTITLE4=Saltwater Cowboy
TTITLE5=Builder's Labourers
TTITLE6=Party Animal Friends
TTITLE7=Henry
TTITLE8=Pickin' N Grinnin'
TTITLE9=A Rock and a Hard Place
TTITLE10=You and Me
TTITLE11=G'Day Country
EXTD=ID3G:   2 YEAR: 1994
EXTT0=
EXTT1=
EXTT2=
EXTT3=
EXTT4=
EXTT5=
EXTT6=
EXTT7=
EXTT8=
EXTT9=
EXTT10=
EXTT11=
PLAYORDER=
